# xmcd
#
# Track frame offsets: 
#        150
#        13629
#        27833
#        47602
#        63617
#        78053
#        89055
#        102101
#        115919
#        130136
#        142281
#        157133
#        169108
#
# Disc length: 2401 seconds
#
# Revision: 0
# Processed by: cddbd v1.4PL0 Copyright (c) Steve Scherf et al.
# Submitted via: ExactAudioCopy v0.90b4
#
DISCID=ae095f0d
DTITLE=Rhonda Vincent - My Blue Tears
DYEAR=2002
DGENRE=Bluegrass
TTITLE0=Good Morning Country Rain
TTITLE1=Lone Star State Of Mind
TTITLE2=Goin' Gone
TTITLE3=Birmingham Turnaround
TTITLE4=Deepening Snow
TTITLE5=My Blue Tears
TTITLE6=We Were Almost Like A Dream Come True
TTITLE7=Wishing Well Blues
TTITLE8=I'm Not That Lonely Yet
TTITLE9=Love Without A Trace
TTITLE10=Mama's Angels
TTITLE11=Bobby And Sarah
TTITLE12=Rise And Shine
EXTD=
EXTT0=
EXTT1=
EXTT2=
EXTT3=
EXTT4=
EXTT5=
EXTT6=
EXTT7=
EXTT8=
EXTT9=
EXTT10=
EXTT11=
EXTT12=
PLAYORDER=
